<svg width="19" height="19" viewBox="0 0 19 19" fill="none" xmlns="http://www.w3.org/2000/svg">
<g clip-path="url(#clip0_1_112)">
<path d="M8.47909 13.884L10.8818 10.1322L13.5085 10.133C14.6343 10.1334 15.5726 9.5708 15.7604 9.00799C15.5729 8.44506 14.635 7.88191 13.5092 7.88156L10.8825 7.88076L8.48207 4.12756C8.33204 3.90237 8.10692 3.82725 7.88175 3.90223L7.58153 3.97719C7.31882 4.08968 7.16865 4.31478 7.2061 4.57747L7.88053 7.87985L6.00418 8.25452L4.87879 7.12844L4.12829 7.12821L4.50297 9.00455L4.12715 10.8807L4.87764 10.8809L6.00373 9.75551L7.87984 10.1313L7.20339 13.4333C7.16579 13.6959 7.31582 13.9211 7.57846 14.0338L7.8411 14.1465C8.10376 14.1841 8.32893 14.1091 8.47909 13.884Z" fill="#1098FF" stroke="#1098FF" stroke-width="2" stroke-linecap="round" stroke-linejoin="round"/>
</g>
<defs>
<clipPath id="clip0_1_112">
<rect width="12.7363" height="12.7363" fill="white" transform="translate(9.00867) rotate(45.0175)"/>
</clipPath>
</defs>
</svg>
